<svg width="19" height="24" viewBox="0 0 19 24" fill="none" xmlns="http://www.w3.org/2000/svg">
<g clip-path="url(#clip0_82_30683)">
<path d="M18.6512 14.766C18.6512 20.5727 14.6405 23.9882 9.69309 23.9882C4.74566 23.9882 0.734985 19.8593 0.734985 14.766C0.734985 9.67278 5.892 0.0766602 9.69309 0.0766602C13.4942 0.0766602 18.6512 9.67278 18.6512 14.766Z" fill="url(#paint0_linear_82_30683)"/>
<path d="M11.9219 11.7677C11.9219 11.3701 12.1067 11.118 12.3477 10.9827C12.6014 10.9399 13.1089 11.012 13.1089 11.6428C13.1089 12.2736 12.6014 12.4332 12.3477 12.355C12.2654 12.3462 11.9219 12.21 11.9219 11.7677Z" fill="black"/>
<path d="M11.279 17.348C11.7949 17.8078 10.6063 19.2789 9.76206 19.3298C8.72225 19.3925 7.60597 18.117 7.84469 17.5065C8.0834 16.8961 9.52651 17.5464 9.64585 17.5096C9.70255 17.4921 10.9601 17.0638 11.279 17.348Z" fill="black"/>
<path d="M6.90887 11.5145C6.90887 11.1163 7.12045 10.8638 7.39635 10.7283C7.68683 10.6854 8.26779 10.7577 8.26779 11.3894C8.26779 12.0211 7.68683 12.1809 7.39635 12.1026C7.30206 12.0939 6.90887 11.9574 6.90887 11.5145Z" fill="black"/>
</g>
<defs>
<linearGradient id="paint0_linear_82_30683" x1="9.69309" y1="5.54386" x2="9.69309" y2="23.9882" gradientUnits="userSpaceOnUse">
<stop stop-color="#B2F263"/>
<stop offset="1" stop-color="#08A882"/>
</linearGradient>
<clipPath id="clip0_82_30683">
<rect width="18" height="24" fill="white" transform="translate(0.666656)"/>
</clipPath>
</defs>
</svg>
