<svg width="228" height="294" viewBox="0 0 228 294" fill="none" xmlns="http://www.w3.org/2000/svg">
<g clip-path="url(#clip0_67_25925)">
<path d="M227.233 180.883C227.233 252.015 176.654 293.855 114.262 293.855C51.8692 293.855 1.29004 243.276 1.29004 180.883C1.29004 118.491 66.3257 0.938354 114.262 0.938354C162.198 0.938354 227.233 118.491 227.233 180.883Z" fill="url(#paint0_linear_67_25925)"/>
<path d="M142.37 144.153C142.37 139.283 144.7 136.194 147.739 134.537C150.939 134.013 157.338 134.896 157.338 142.623C157.338 150.35 150.939 152.305 147.739 151.347C146.701 151.24 142.37 149.571 142.37 144.153Z" fill="black"/>
<path d="M85.4229 224.9C85.4228 220.03 100.492 218.385 111.347 218.385C121.436 218.385 140.219 215.528 140.219 223.256C140.219 230.983 112.365 229.982 111.347 230.454C110.456 230.454 85.4229 230.318 85.4229 224.9Z" fill="black"/>
<path d="M79.1494 141.054C79.1494 136.177 81.8176 133.083 85.2971 131.423C88.9603 130.898 96.2868 131.783 96.2868 139.522C96.2868 147.26 88.9603 149.218 85.2971 148.258C84.1079 148.151 79.1494 146.48 79.1494 141.054Z" fill="black"/>
</g>
<defs>
<linearGradient id="paint0_linear_67_25925" x1="114.262" y1="0.938354" x2="114.262" y2="293.855" gradientUnits="userSpaceOnUse">
<stop stop-color="#B8F89A"/>
<stop offset="1" stop-color="#5AD9D1"/>
</linearGradient>
<clipPath id="clip0_67_25925">
<rect width="227" height="294" fill="white" transform="translate(0.428223)"/>
</clipPath>
</defs>
</svg>
