<svg width="228" height="294" viewBox="0 0 228 294" fill="none" xmlns="http://www.w3.org/2000/svg">
<g clip-path="url(#clip0_67_25920)">
<path d="M227.233 180.883C227.233 252.015 176.654 293.855 114.262 293.855C51.8692 293.855 1.29004 243.276 1.29004 180.883C1.29004 118.491 66.3257 0.938477 114.262 0.938477C162.198 0.938477 227.233 118.491 227.233 180.883Z" fill="url(#paint0_linear_67_25920)"/>
<path d="M227.233 180.883C227.233 252.015 176.654 293.855 114.262 293.855C51.8692 293.855 1.29004 243.276 1.29004 180.883C1.29004 118.491 66.3257 0.938477 114.262 0.938477C162.198 0.938477 227.233 118.491 227.233 180.883Z" fill="url(#paint1_linear_67_25920)"/>
<path d="M142.37 144.153C142.37 139.283 144.7 136.194 147.739 134.537C150.939 134.013 157.338 134.896 157.338 142.623C157.338 150.35 150.939 152.305 147.739 151.347C146.701 151.24 142.37 149.571 142.37 144.153Z" fill="black"/>
<path d="M134.364 217.362C137.092 220.21 124.598 230.273 117.714 231.616C110.466 232.04 90.6636 224.209 92.2704 218.161C93.9834 211.714 112.639 218.956 114.144 218.506L114.158 218.502C115.04 218.237 130.705 213.543 134.364 217.362Z" fill="black"/>
<path d="M79.1494 141.054C79.1494 136.177 81.8176 133.083 85.2971 131.423C88.9603 130.898 96.2868 131.783 96.2868 139.522C96.2868 147.26 88.9603 149.218 85.2971 148.258C84.1079 148.151 79.1494 146.48 79.1494 141.054Z" fill="black"/>
</g>
<defs>
<linearGradient id="paint0_linear_67_25920" x1="114.262" y1="67.9116" x2="114.262" y2="293.855" gradientUnits="userSpaceOnUse">
<stop stop-color="#B2F263"/>
<stop offset="1" stop-color="#08A882"/>
</linearGradient>
<linearGradient id="paint1_linear_67_25920" x1="14.8679" y1="-2.21791" x2="219.199" y2="293.169" gradientUnits="userSpaceOnUse">
<stop stop-color="#E8F454"/>
<stop offset="0.875" stop-color="#48AB0C"/>
</linearGradient>
<clipPath id="clip0_67_25920">
<rect width="227" height="294" fill="white" transform="translate(0.428223)"/>
</clipPath>
</defs>
</svg>
